<svg id="Capa_1" enable-background="new 0 0 497 497" height="512" viewBox="0 0 497 497" width="512" xmlns="http://www.w3.org/2000/svg"><g><path d="m90 68.5-30 60h60v-52.5c0-4.142-3.358-7.5-7.5-7.5z" fill="#cbc9c2"/><path d="m90 68.5v60h-60v-52.5c0-4.142 3.358-7.5 7.5-7.5z" fill="#f0ede5"/><path d="m467 98.5h-30v195l60-105v-60c0-16.57-13.43-30-30-30z" fill="#8f8f8b"/><path d="m437 98.5h-407c-16.57 0-30 13.43-30 30v60l467 105v-165c0-16.57-13.43-30-30-30z" fill="#adaca7"/><path d="m90 128.5-15 15 15 15h30v-30z" fill="#404242"/><path d="m60 128.5-15 15 15 15h30v-30z" fill="#565959"/><path d="m30 128.5h30v30h-30z" fill="#6f706f"/><path d="m467 188.5-30 30v210h30c16.57 0 30-13.43 30-30v-210z" fill="#404242"/><path d="m467 188.5v210c0 16.57-13.43 30-30 30h-407c-16.57 0-30-13.43-30-30v-210z" fill="#565959"/><circle cx="248.5" cy="263.5" fill="#f0ede5" r="135"/><circle cx="248.5" cy="263.5" fill="#404242" r="105"/><path d="m308.5 218.5c-13.68-18.22-35.47-30-60-30v150c24.53 0 46.32-11.78 60-30z" fill="#6f706f"/><path d="m284.5 218.5c-8.21-18.22-21.28-30-36-30-24.53 0-46.32 11.78-60 30v90c13.68 18.22 35.47 30 60 30 14.72 0 27.79-11.78 36-30z" fill="#8f8f8b"/><path d="m308.5 218.5h-24v90h24c9.42-12.53 15-28.11 15-45s-5.58-32.47-15-45z" fill="#4b88d5"/><path d="m284.5 218.5c5.65 12.53 9 28.11 9 45s-3.35 32.47-9 45h-96c-9.42-12.53-15-28.11-15-45s5.58-32.47 15-45z" fill="#69a7ff"/></g></svg>